<mxfile host="app.diagrams.net" modified="2020-10-08T09:26:01.390Z" agent="5.0 (Windows NT 10.0; Win64; x64) AppleWebKit/537.36 (KHTML, like Gecko) Chrome/85.0.4183.121 Safari/537.36" etag="V9EcM5jVQshc4eGyPaF9" version="13.7.8" type="github">
  <diagram name="Page-1" id="c7488fd3-1785-93aa-aadb-54a6760d102a">
    <mxGraphModel dx="1038" dy="1418" grid="1" gridSize="10" guides="1" tooltips="1" connect="1" arrows="1" fold="1" page="1" pageScale="1" pageWidth="1100" pageHeight="850" background="#ffffff" math="1" shadow="0">
      <root>
        <mxCell id="0" />
        <mxCell id="1" parent="0" />
        <mxCell id="Jt5arx7BnowhSY7UeLpi-21" value="" style="rounded=0;whiteSpace=wrap;html=1;" vertex="1" parent="1">
          <mxGeometry x="120" y="60" width="360" height="340" as="geometry" />
        </mxCell>
        <mxCell id="Jt5arx7BnowhSY7UeLpi-1" value="" style="ellipse;whiteSpace=wrap;html=1;aspect=fixed;" vertex="1" parent="1">
          <mxGeometry x="170" y="110" width="20" height="20" as="geometry" />
        </mxCell>
        <mxCell id="Jt5arx7BnowhSY7UeLpi-2" value="" style="ellipse;whiteSpace=wrap;html=1;aspect=fixed;" vertex="1" parent="1">
          <mxGeometry x="200" y="110" width="20" height="20" as="geometry" />
        </mxCell>
        <mxCell id="Jt5arx7BnowhSY7UeLpi-3" value="" style="ellipse;whiteSpace=wrap;html=1;aspect=fixed;" vertex="1" parent="1">
          <mxGeometry x="230" y="110" width="20" height="20" as="geometry" />
        </mxCell>
        <mxCell id="Jt5arx7BnowhSY7UeLpi-4" value="" style="ellipse;whiteSpace=wrap;html=1;aspect=fixed;" vertex="1" parent="1">
          <mxGeometry x="260" y="110" width="20" height="20" as="geometry" />
        </mxCell>
        <mxCell id="Jt5arx7BnowhSY7UeLpi-5" value="" style="ellipse;whiteSpace=wrap;html=1;aspect=fixed;" vertex="1" parent="1">
          <mxGeometry x="170" y="150" width="20" height="20" as="geometry" />
        </mxCell>
        <mxCell id="Jt5arx7BnowhSY7UeLpi-6" value="" style="ellipse;whiteSpace=wrap;html=1;aspect=fixed;" vertex="1" parent="1">
          <mxGeometry x="200" y="150" width="20" height="20" as="geometry" />
        </mxCell>
        <mxCell id="Jt5arx7BnowhSY7UeLpi-7" value="" style="ellipse;whiteSpace=wrap;html=1;aspect=fixed;" vertex="1" parent="1">
          <mxGeometry x="230" y="150" width="20" height="20" as="geometry" />
        </mxCell>
        <mxCell id="Jt5arx7BnowhSY7UeLpi-8" value="" style="ellipse;whiteSpace=wrap;html=1;aspect=fixed;" vertex="1" parent="1">
          <mxGeometry x="260" y="150" width="20" height="20" as="geometry" />
        </mxCell>
        <mxCell id="Jt5arx7BnowhSY7UeLpi-13" value="" style="ellipse;whiteSpace=wrap;html=1;aspect=fixed;" vertex="1" parent="1">
          <mxGeometry x="170" y="190" width="20" height="20" as="geometry" />
        </mxCell>
        <mxCell id="Jt5arx7BnowhSY7UeLpi-14" value="" style="ellipse;whiteSpace=wrap;html=1;aspect=fixed;" vertex="1" parent="1">
          <mxGeometry x="200" y="190" width="20" height="20" as="geometry" />
        </mxCell>
        <mxCell id="Jt5arx7BnowhSY7UeLpi-15" value="" style="ellipse;whiteSpace=wrap;html=1;aspect=fixed;" vertex="1" parent="1">
          <mxGeometry x="230" y="190" width="20" height="20" as="geometry" />
        </mxCell>
        <mxCell id="Jt5arx7BnowhSY7UeLpi-16" value="" style="ellipse;whiteSpace=wrap;html=1;aspect=fixed;" vertex="1" parent="1">
          <mxGeometry x="260" y="190" width="20" height="20" as="geometry" />
        </mxCell>
        <mxCell id="Jt5arx7BnowhSY7UeLpi-17" value="" style="endArrow=classic;html=1;" edge="1" parent="1">
          <mxGeometry width="50" height="50" relative="1" as="geometry">
            <mxPoint x="160" y="30" as="sourcePoint" />
            <mxPoint x="220" y="30" as="targetPoint" />
          </mxGeometry>
        </mxCell>
        <mxCell id="Jt5arx7BnowhSY7UeLpi-18" value="Direction of Processing&lt;br&gt;" style="text;html=1;strokeColor=none;fillColor=none;align=center;verticalAlign=middle;whiteSpace=wrap;rounded=0;" vertex="1" parent="1">
          <mxGeometry x="160" y="-10" width="40" height="20" as="geometry" />
        </mxCell>
        <mxCell id="Jt5arx7BnowhSY7UeLpi-20" value="&lt;span&gt;Find the HxWxD matching cost first&lt;br&gt;Simplest is SAD method&lt;br&gt;&lt;/span&gt;" style="shape=ext;double=1;rounded=0;whiteSpace=wrap;html=1;" vertex="1" parent="1">
          <mxGeometry x="580" y="-30" width="260" height="80" as="geometry" />
        </mxCell>
        <mxCell id="Jt5arx7BnowhSY7UeLpi-24" value="" style="shape=sumEllipse;perimeter=ellipsePerimeter;whiteSpace=wrap;html=1;backgroundOutline=1;" vertex="1" parent="1">
          <mxGeometry x="140" y="80" width="20" height="20" as="geometry" />
        </mxCell>
        <mxCell id="Jt5arx7BnowhSY7UeLpi-25" value="" style="shape=sumEllipse;perimeter=ellipsePerimeter;whiteSpace=wrap;html=1;backgroundOutline=1;" vertex="1" parent="1">
          <mxGeometry x="170" y="80" width="20" height="20" as="geometry" />
        </mxCell>
        <mxCell id="Jt5arx7BnowhSY7UeLpi-26" value="" style="shape=sumEllipse;perimeter=ellipsePerimeter;whiteSpace=wrap;html=1;backgroundOutline=1;" vertex="1" parent="1">
          <mxGeometry x="140" y="110" width="20" height="20" as="geometry" />
        </mxCell>
        <mxCell id="Jt5arx7BnowhSY7UeLpi-27" value="" style="shape=sumEllipse;perimeter=ellipsePerimeter;whiteSpace=wrap;html=1;backgroundOutline=1;" vertex="1" parent="1">
          <mxGeometry x="200" y="80" width="20" height="20" as="geometry" />
        </mxCell>
        <mxCell id="Jt5arx7BnowhSY7UeLpi-28" value="" style="shape=sumEllipse;perimeter=ellipsePerimeter;whiteSpace=wrap;html=1;backgroundOutline=1;" vertex="1" parent="1">
          <mxGeometry x="230" y="80" width="20" height="20" as="geometry" />
        </mxCell>
        <mxCell id="Jt5arx7BnowhSY7UeLpi-29" value="" style="shape=sumEllipse;perimeter=ellipsePerimeter;whiteSpace=wrap;html=1;backgroundOutline=1;" vertex="1" parent="1">
          <mxGeometry x="260" y="80" width="20" height="20" as="geometry" />
        </mxCell>
        <mxCell id="Jt5arx7BnowhSY7UeLpi-30" value="" style="shape=sumEllipse;perimeter=ellipsePerimeter;whiteSpace=wrap;html=1;backgroundOutline=1;" vertex="1" parent="1">
          <mxGeometry x="140" y="150" width="20" height="20" as="geometry" />
        </mxCell>
        <mxCell id="Jt5arx7BnowhSY7UeLpi-31" value="" style="shape=sumEllipse;perimeter=ellipsePerimeter;whiteSpace=wrap;html=1;backgroundOutline=1;" vertex="1" parent="1">
          <mxGeometry x="140" y="190" width="20" height="20" as="geometry" />
        </mxCell>
        <mxCell id="Jt5arx7BnowhSY7UeLpi-32" value="" style="rounded=0;whiteSpace=wrap;html=1;" vertex="1" parent="1">
          <mxGeometry x="650" y="130" width="120" height="60" as="geometry" />
        </mxCell>
      </root>
    </mxGraphModel>
  </diagram>
</mxfile>
